<svg width="255" height="238" viewBox="0 0 255 238" fill="none" xmlns="http://www.w3.org/2000/svg">
<path d="M60.1145 15.1366L60.2639 15.3069H60.4904H254.5V188.5H0.5V15.3069H34.5096H34.7361L34.8855 15.1366L47.5 0.758158L60.1145 15.1366Z" fill="#F9F9F9" stroke="#D6D6D6"/>
<rect x="0.5" y="188.5" width="254" height="49" stroke="#D6D6D6"/>
<rect width="93" height="30" transform="translate(137 198)" fill="#333333"/>
<path d="M155.996 208.6V217H154.88V209.656H151.016V217H149.9V208.6H155.996ZM165.982 215.884C165.142 216.732 164.114 217.156 162.898 217.156C161.682 217.156 160.654 216.732 159.814 215.884C158.974 215.036 158.554 214.008 158.554 212.8C158.554 211.584 158.974 210.556 159.814 209.716C160.654 208.868 161.682 208.444 162.898 208.444C164.114 208.444 165.142 208.868 165.982 209.716C166.83 210.556 167.254 211.584 167.254 212.8C167.254 214.008 166.83 215.036 165.982 215.884ZM160.582 215.128C161.206 215.752 161.978 216.064 162.898 216.064C163.818 216.064 164.586 215.752 165.202 215.128C165.826 214.496 166.138 213.72 166.138 212.8C166.138 211.872 165.826 211.096 165.202 210.472C164.586 209.84 163.818 209.524 162.898 209.524C161.978 209.524 161.206 209.84 160.582 210.472C159.966 211.096 159.658 211.872 159.658 212.8C159.658 213.72 159.966 214.496 160.582 215.128ZM175.904 217H174.536L170.912 212.968V217H169.796V208.6H170.912V212.392L174.416 208.6H175.784L172.076 212.68L175.904 217ZM183.782 217L183.098 215.116H179.318L178.634 217H177.446L180.578 208.6H181.838L184.97 217H183.782ZM179.702 214.072H182.714L181.202 209.932L179.702 214.072ZM191.241 212.656C191.673 212.84 192.009 213.108 192.249 213.46C192.489 213.812 192.609 214.228 192.609 214.708C192.609 215.428 192.337 216.016 191.793 216.472C191.257 216.928 190.545 217.156 189.657 217.156C188.849 217.156 188.197 216.976 187.701 216.616C187.213 216.256 186.869 215.792 186.669 215.224L187.617 214.684C187.865 215.628 188.545 216.1 189.657 216.1C190.241 216.1 190.693 215.972 191.013 215.716C191.333 215.452 191.493 215.104 191.493 214.672C191.493 214.24 191.341 213.892 191.037 213.628C190.741 213.364 190.325 213.232 189.789 213.232H188.805V212.212H189.513C190.025 212.212 190.433 212.088 190.737 211.84C191.041 211.584 191.193 211.252 191.193 210.844C191.193 210.444 191.049 210.12 190.761 209.872C190.481 209.616 190.089 209.488 189.585 209.488C188.657 209.488 188.037 209.9 187.725 210.724L186.789 210.184C187.293 209.024 188.225 208.444 189.585 208.444C190.393 208.444 191.045 208.668 191.541 209.116C192.045 209.564 192.297 210.132 192.297 210.82C192.297 211.62 191.945 212.232 191.241 212.656ZM200.666 217L199.982 215.116H196.202L195.518 217H194.33L197.462 208.6H198.722L201.854 217H200.666ZM196.586 214.072H199.598L198.086 209.932L196.586 214.072ZM208.812 208.6V209.656H206.328V217H205.224V209.656H202.752V208.6H208.812ZM214.164 211.6C214.94 211.6 215.584 211.86 216.096 212.38C216.616 212.9 216.876 213.54 216.876 214.3C216.876 215.068 216.616 215.712 216.096 216.232C215.584 216.744 214.94 217 214.164 217H211.116V208.6H212.232V211.6H214.164ZM214.164 215.956C214.628 215.956 215.012 215.8 215.316 215.488C215.62 215.176 215.772 214.78 215.772 214.3C215.772 213.828 215.62 213.436 215.316 213.124C215.012 212.804 214.628 212.644 214.164 212.644H212.232V215.956H214.164Z" fill="white"/>
<path d="M37.884 215.884C37.044 216.732 36.016 217.156 34.8 217.156C33.584 217.156 32.556 216.732 31.716 215.884C30.876 215.036 30.456 214.008 30.456 212.8C30.456 211.584 30.876 210.556 31.716 209.716C32.556 208.868 33.584 208.444 34.8 208.444C36.016 208.444 37.044 208.868 37.884 209.716C38.732 210.556 39.156 211.584 39.156 212.8C39.156 214.008 38.732 215.036 37.884 215.884ZM32.484 215.128C33.108 215.752 33.88 216.064 34.8 216.064C35.72 216.064 36.488 215.752 37.104 215.128C37.728 214.496 38.04 213.72 38.04 212.8C38.04 211.872 37.728 211.096 37.104 210.472C36.488 209.84 35.72 209.524 34.8 209.524C33.88 209.524 33.108 209.84 32.484 210.472C31.868 211.096 31.56 211.872 31.56 212.8C31.56 213.72 31.868 214.496 32.484 215.128ZM46.1887 208.6H47.3048V217H46.1887V213.616C45.5328 213.928 44.8448 214.084 44.1248 214.084C43.3087 214.084 42.6487 213.856 42.1447 213.4C41.6407 212.936 41.3887 212.336 41.3887 211.6V208.6H42.5047V211.528C42.5047 211.984 42.6487 212.348 42.9367 212.62C43.2247 212.892 43.6247 213.028 44.1367 213.028C44.8567 213.028 45.5407 212.872 46.1887 212.56V208.6ZM55.5239 217V210.736L51.2039 217H50.3039V208.6H51.4199V214.876L55.7399 208.6H56.6399V217H55.5239ZM63.5847 217.156C62.3127 217.156 61.2607 216.736 60.4287 215.896C59.6047 215.056 59.1927 214.024 59.1927 212.8C59.1927 211.576 59.6047 210.544 60.4287 209.704C61.2607 208.864 62.3127 208.444 63.5847 208.444C64.3527 208.444 65.0567 208.628 65.6967 208.996C66.3447 209.364 66.8487 209.86 67.2087 210.484L66.2367 211.048C65.9967 210.584 65.6367 210.216 65.1567 209.944C64.6847 209.664 64.1607 209.524 63.5847 209.524C62.6167 209.524 61.8247 209.836 61.2087 210.46C60.6007 211.084 60.2967 211.864 60.2967 212.8C60.2967 213.728 60.6007 214.504 61.2087 215.128C61.8247 215.752 62.6167 216.064 63.5847 216.064C64.1607 216.064 64.6847 215.928 65.1567 215.656C65.6367 215.376 65.9967 215.008 66.2367 214.552L67.2087 215.104C66.8567 215.728 66.3567 216.228 65.7087 216.604C65.0607 216.972 64.3527 217.156 63.5847 217.156ZM74.9549 208.6V209.656H72.4709V217H71.3669V209.656H68.8949V208.6H74.9549ZM82.4794 217V210.736L78.1594 217H77.2594V208.6H78.3754V214.876L82.6954 208.6H83.5954V217H82.4794ZM91.9682 208.6V209.656H89.4842V217H88.3802V209.656H85.9082V208.6H91.9682ZM97.3207 211.6C98.0967 211.6 98.7407 211.86 99.2527 212.38C99.7727 212.9 100.033 213.54 100.033 214.3C100.033 215.068 99.7727 215.712 99.2527 216.232C98.7407 216.744 98.0967 217 97.3207 217H94.2727V208.6H95.3887V211.6H97.3207ZM97.3207 215.956C97.7847 215.956 98.1687 215.8 98.4727 215.488C98.7767 215.176 98.9287 214.78 98.9287 214.3C98.9287 213.828 98.7767 213.436 98.4727 213.124C98.1687 212.804 97.7847 212.644 97.3207 212.644H95.3887V215.956H97.3207Z" fill="#333333"/>
<line x1="30" y1="222.5" x2="100" y2="222.5" stroke="black" stroke-dasharray="3 3"/>
<path d="M39.226 53.698C38.246 54.678 37.0467 55.168 35.628 55.168C34.2093 55.168 33.01 54.678 32.03 53.698C31.05 52.7087 30.56 51.5093 30.56 50.1C30.56 48.6907 31.05 47.496 32.03 46.516C33.01 45.5267 34.2093 45.032 35.628 45.032C37.0467 45.032 38.246 45.5267 39.226 46.516C40.206 47.496 40.696 48.6907 40.696 50.1C40.696 51.5093 40.206 52.7087 39.226 53.698ZM32.716 53.026C33.5 53.8193 34.4707 54.216 35.628 54.216C36.7853 54.216 37.756 53.8193 38.54 53.026C39.324 52.2233 39.716 51.248 39.716 50.1C39.716 48.952 39.324 47.9813 38.54 47.188C37.756 46.3853 36.7853 45.984 35.628 45.984C34.4707 45.984 33.5 46.3853 32.716 47.188C31.932 47.9813 31.54 48.952 31.54 50.1C31.54 51.248 31.932 52.2233 32.716 53.026ZM47.272 48V48.896H44.794V55H43.87V48.896H41.392V48H47.272Z" fill="#333333"/>
<rect x="30.5" y="66.5" width="109" height="25" fill="#F9F9F9" stroke="#D6D6D6"/>
<path d="M163.322 74.2V75.432H160.424V84H159.136V75.432H156.252V74.2H163.322ZM166.011 84V74.2H167.313V77.7H169.567C170.472 77.7 171.223 78.0033 171.821 78.61C172.427 79.2167 172.731 79.9633 172.731 80.85C172.731 81.746 172.427 82.4973 171.821 83.104C171.223 83.7013 170.472 84 169.567 84H166.011ZM173.725 84V74.2H175.027V84H173.725ZM167.313 82.782H169.567C170.108 82.782 170.556 82.6 170.911 82.236C171.265 81.872 171.443 81.41 171.443 80.85C171.443 80.29 171.265 79.828 170.911 79.464C170.556 79.1 170.108 78.918 169.567 78.918H167.313V82.782ZM183.132 84.182C181.648 84.182 180.42 83.692 179.45 82.712C178.488 81.732 178.008 80.528 178.008 79.1C178.008 77.672 178.488 76.468 179.45 75.488C180.42 74.508 181.648 74.018 183.132 74.018C184.028 74.018 184.849 74.2327 185.596 74.662C186.352 75.0913 186.94 75.67 187.36 76.398L186.226 77.056C185.946 76.5147 185.526 76.0853 184.966 75.768C184.415 75.4413 183.804 75.278 183.132 75.278C182.002 75.278 181.078 75.642 180.36 76.37C179.65 77.098 179.296 78.008 179.296 79.1C179.296 80.1827 179.65 81.088 180.36 81.816C181.078 82.544 182.002 82.908 183.132 82.908C183.804 82.908 184.415 82.7493 184.966 82.432C185.526 82.1053 185.946 81.676 186.226 81.144L187.36 81.788C186.949 82.516 186.366 83.0993 185.61 83.538C184.854 83.9673 184.028 84.182 183.132 84.182ZM190.482 84.154C190.23 84.154 190.015 84.0653 189.838 83.888C189.661 83.7107 189.572 83.496 189.572 83.244C189.572 82.992 189.661 82.7773 189.838 82.6C190.015 82.4227 190.23 82.334 190.482 82.334C190.743 82.334 190.958 82.4227 191.126 82.6C191.303 82.7773 191.392 82.992 191.392 83.244C191.392 83.496 191.303 83.7107 191.126 83.888C190.958 84.0653 190.743 84.154 190.482 84.154ZM203.098 74.2C204.004 74.2 204.755 74.5033 205.352 75.11C205.959 75.7073 206.262 76.454 206.262 77.35C206.262 78.2367 205.959 78.9833 205.352 79.59C204.755 80.1967 204.004 80.5 203.098 80.5H200.844V84H199.542V74.2H203.098ZM203.098 79.282C203.64 79.282 204.088 79.1 204.442 78.736C204.797 78.3627 204.974 77.9007 204.974 77.35C204.974 76.79 204.797 76.328 204.442 75.964C204.088 75.6 203.64 75.418 203.098 75.418H200.844V79.282H203.098ZM214.377 74.2H215.693L212.543 81.676C212.188 82.516 211.735 83.1273 211.185 83.51C210.634 83.8833 209.962 84.0467 209.169 84V82.796C209.71 82.852 210.149 82.7727 210.485 82.558C210.821 82.3433 211.101 81.9747 211.325 81.452L211.423 81.228L208.105 74.2H209.421L212.025 79.8L214.377 74.2ZM221.966 78.05C222.815 78.05 223.534 78.3393 224.122 78.918C224.71 79.4873 225.004 80.1873 225.004 81.018C225.004 81.8673 224.71 82.5767 224.122 83.146C223.543 83.7153 222.824 84 221.966 84H218.284V74.2H224.164V75.432H219.586V78.05H221.966ZM221.966 82.782C222.451 82.782 222.862 82.614 223.198 82.278C223.543 81.942 223.716 81.522 223.716 81.018C223.716 80.5233 223.543 80.108 223.198 79.772C222.862 79.436 222.451 79.268 221.966 79.268H219.586V82.782H221.966ZM228.244 84.154C227.992 84.154 227.777 84.0653 227.6 83.888C227.422 83.7107 227.334 83.496 227.334 83.244C227.334 82.992 227.422 82.7773 227.6 82.6C227.777 82.4227 227.992 82.334 228.244 82.334C228.505 82.334 228.72 82.4227 228.888 82.6C229.065 82.7773 229.154 82.992 229.154 83.244C229.154 83.496 229.065 83.7107 228.888 83.888C228.72 84.0653 228.505 84.154 228.244 84.154Z" fill="#333333"/>
<path d="M42.376 74.6H43.336V83H42.232V75.8L40.444 76.328L40.168 75.368L42.376 74.6ZM50.4453 81.968C49.8773 82.76 49.0813 83.156 48.0573 83.156C47.0333 83.156 46.2373 82.76 45.6693 81.968C45.1013 81.176 44.8173 80.12 44.8173 78.8C44.8173 77.48 45.1013 76.424 45.6693 75.632C46.2373 74.84 47.0333 74.444 48.0573 74.444C49.0813 74.444 49.8773 74.84 50.4453 75.632C51.0133 76.424 51.2973 77.48 51.2973 78.8C51.2973 80.12 51.0133 81.176 50.4453 81.968ZM46.4853 81.212C46.8533 81.78 47.3773 82.064 48.0573 82.064C48.7373 82.064 49.2613 81.78 49.6293 81.212C50.0053 80.644 50.1933 79.84 50.1933 78.8C50.1933 77.76 50.0053 76.956 49.6293 76.388C49.2613 75.812 48.7373 75.524 48.0573 75.524C47.3773 75.524 46.8533 75.808 46.4853 76.376C46.1173 76.944 45.9333 77.752 45.9333 78.8C45.9333 79.84 46.1173 80.644 46.4853 81.212Z" fill="#979797"/>
<path d="M38.12 121.076H39.17V123.876H38.19V122H31.19V123.876H30.21V121.076H31.008C31.652 120.32 31.974 119.153 31.974 117.576V112.2H38.12V121.076ZM32.17 121.076H37.14V113.124H32.954V117.604C32.954 119.153 32.6927 120.311 32.17 121.076ZM46.2386 121.118C45.5292 121.818 44.6612 122.168 43.6346 122.168C42.6079 122.168 41.7352 121.818 41.0166 121.118C40.3072 120.409 39.9526 119.536 39.9526 118.5C39.9526 117.464 40.3072 116.596 41.0166 115.896C41.7352 115.187 42.6079 114.832 43.6346 114.832C44.6612 114.832 45.5292 115.187 46.2386 115.896C46.9572 116.596 47.3166 117.464 47.3166 118.5C47.3166 119.536 46.9572 120.409 46.2386 121.118ZM41.6746 120.474C42.2066 121.006 42.8599 121.272 43.6346 121.272C44.4092 121.272 45.0626 121.006 45.5946 120.474C46.1266 119.933 46.3926 119.275 46.3926 118.5C46.3926 117.725 46.1266 117.072 45.5946 116.54C45.0626 115.999 44.4092 115.728 43.6346 115.728C42.8599 115.728 42.2066 115.999 41.6746 116.54C41.1426 117.072 40.8766 117.725 40.8766 118.5C40.8766 119.275 41.1426 119.933 41.6746 120.474Z" fill="#333333"/>
<path d="M163.322 141.2V142.432H160.424V151H159.136V142.432H156.252V141.2H163.322ZM166.011 151V141.2H167.313V144.7H169.567C170.472 144.7 171.223 145.003 171.821 145.61C172.427 146.217 172.731 146.963 172.731 147.85C172.731 148.746 172.427 149.497 171.821 150.104C171.223 150.701 170.472 151 169.567 151H166.011ZM173.725 151V141.2H175.027V151H173.725ZM167.313 149.782H169.567C170.108 149.782 170.556 149.6 170.911 149.236C171.265 148.872 171.443 148.41 171.443 147.85C171.443 147.29 171.265 146.828 170.911 146.464C170.556 146.1 170.108 145.918 169.567 145.918H167.313V149.782ZM183.132 151.182C181.648 151.182 180.42 150.692 179.45 149.712C178.488 148.732 178.008 147.528 178.008 146.1C178.008 144.672 178.488 143.468 179.45 142.488C180.42 141.508 181.648 141.018 183.132 141.018C184.028 141.018 184.849 141.233 185.596 141.662C186.352 142.091 186.94 142.67 187.36 143.398L186.226 144.056C185.946 143.515 185.526 143.085 184.966 142.768C184.415 142.441 183.804 142.278 183.132 142.278C182.002 142.278 181.078 142.642 180.36 143.37C179.65 144.098 179.296 145.008 179.296 146.1C179.296 147.183 179.65 148.088 180.36 148.816C181.078 149.544 182.002 149.908 183.132 149.908C183.804 149.908 184.415 149.749 184.966 149.432C185.526 149.105 185.946 148.676 186.226 148.144L187.36 148.788C186.949 149.516 186.366 150.099 185.61 150.538C184.854 150.967 184.028 151.182 183.132 151.182ZM190.482 151.154C190.23 151.154 190.015 151.065 189.838 150.888C189.661 150.711 189.572 150.496 189.572 150.244C189.572 149.992 189.661 149.777 189.838 149.6C190.015 149.423 190.23 149.334 190.482 149.334C190.743 149.334 190.958 149.423 191.126 149.6C191.303 149.777 191.392 149.992 191.392 150.244C191.392 150.496 191.303 150.711 191.126 150.888C190.958 151.065 190.743 151.154 190.482 151.154ZM203.098 141.2C204.004 141.2 204.755 141.503 205.352 142.11C205.959 142.707 206.262 143.454 206.262 144.35C206.262 145.237 205.959 145.983 205.352 146.59C204.755 147.197 204.004 147.5 203.098 147.5H200.844V151H199.542V141.2H203.098ZM203.098 146.282C203.64 146.282 204.088 146.1 204.442 145.736C204.797 145.363 204.974 144.901 204.974 144.35C204.974 143.79 204.797 143.328 204.442 142.964C204.088 142.6 203.64 142.418 203.098 142.418H200.844V146.282H203.098ZM214.377 141.2H215.693L212.543 148.676C212.188 149.516 211.735 150.127 211.185 150.51C210.634 150.883 209.962 151.047 209.169 151V149.796C209.71 149.852 210.149 149.773 210.485 149.558C210.821 149.343 211.101 148.975 211.325 148.452L211.423 148.228L208.105 141.2H209.421L212.025 146.8L214.377 141.2ZM221.966 145.05C222.815 145.05 223.534 145.339 224.122 145.918C224.71 146.487 225.004 147.187 225.004 148.018C225.004 148.867 224.71 149.577 224.122 150.146C223.543 150.715 222.824 151 221.966 151H218.284V141.2H224.164V142.432H219.586V145.05H221.966ZM221.966 149.782C222.451 149.782 222.862 149.614 223.198 149.278C223.543 148.942 223.716 148.522 223.716 148.018C223.716 147.523 223.543 147.108 223.198 146.772C222.862 146.436 222.451 146.268 221.966 146.268H219.586V149.782H221.966ZM228.244 151.154C227.992 151.154 227.777 151.065 227.6 150.888C227.422 150.711 227.334 150.496 227.334 150.244C227.334 149.992 227.422 149.777 227.6 149.6C227.777 149.423 227.992 149.334 228.244 149.334C228.505 149.334 228.72 149.423 228.888 149.6C229.065 149.777 229.154 149.992 229.154 150.244C229.154 150.496 229.065 150.711 228.888 150.888C228.72 151.065 228.505 151.154 228.244 151.154Z" fill="#333333"/>
<rect x="30.5" y="133.5" width="109" height="25" fill="#F9F9F9" stroke="#D6D6D6"/>
<path d="M42.376 141.6H43.336V150H42.232V142.8L40.444 143.328L40.168 142.368L42.376 141.6ZM53.4453 148.968C52.8773 149.76 52.0813 150.156 51.0573 150.156C50.0333 150.156 49.2373 149.76 48.6693 148.968C48.1013 148.176 47.8173 147.12 47.8173 145.8C47.8173 144.48 48.1013 143.424 48.6693 142.632C49.2373 141.84 50.0333 141.444 51.0573 141.444C52.0813 141.444 52.8773 141.84 53.4453 142.632C54.0133 143.424 54.2973 144.48 54.2973 145.8C54.2973 147.12 54.0133 148.176 53.4453 148.968ZM49.4853 148.212C49.8533 148.78 50.3773 149.064 51.0573 149.064C51.7373 149.064 52.2613 148.78 52.6293 148.212C53.0053 147.644 53.1933 146.84 53.1933 145.8C53.1933 144.76 53.0053 143.956 52.6293 143.388C52.2613 142.812 51.7373 142.524 51.0573 142.524C50.3773 142.524 49.8533 142.808 49.4853 143.376C49.1173 143.944 48.9333 144.752 48.9333 145.8C48.9333 146.84 49.1173 147.644 49.4853 148.212ZM61.0039 148.968C60.4359 149.76 59.6399 150.156 58.6159 150.156C57.5919 150.156 56.7959 149.76 56.2279 148.968C55.6599 148.176 55.3759 147.12 55.3759 145.8C55.3759 144.48 55.6599 143.424 56.2279 142.632C56.7959 141.84 57.5919 141.444 58.6159 141.444C59.6399 141.444 60.4359 141.84 61.0039 142.632C61.5719 143.424 61.8559 144.48 61.8559 145.8C61.8559 147.12 61.5719 148.176 61.0039 148.968ZM57.0439 148.212C57.4119 148.78 57.9359 149.064 58.6159 149.064C59.2959 149.064 59.8199 148.78 60.1879 148.212C60.5639 147.644 60.7519 146.84 60.7519 145.8C60.7519 144.76 60.5639 143.956 60.1879 143.388C59.8199 142.812 59.2959 142.524 58.6159 142.524C57.9359 142.524 57.4119 142.808 57.0439 143.376C56.6759 143.944 56.4919 144.752 56.4919 145.8C56.4919 146.84 56.6759 147.644 57.0439 148.212ZM68.5625 148.968C67.9945 149.76 67.1985 150.156 66.1745 150.156C65.1505 150.156 64.3545 149.76 63.7865 148.968C63.2185 148.176 62.9345 147.12 62.9345 145.8C62.9345 144.48 63.2185 143.424 63.7865 142.632C64.3545 141.84 65.1505 141.444 66.1745 141.444C67.1985 141.444 67.9945 141.84 68.5625 142.632C69.1305 143.424 69.4145 144.48 69.4145 145.8C69.4145 147.12 69.1305 148.176 68.5625 148.968ZM64.6025 148.212C64.9705 148.78 65.4945 149.064 66.1745 149.064C66.8545 149.064 67.3785 148.78 67.7465 148.212C68.1225 147.644 68.3105 146.84 68.3105 145.8C68.3105 144.76 68.1225 143.956 67.7465 143.388C67.3785 142.812 66.8545 142.524 66.1745 142.524C65.4945 142.524 64.9705 142.808 64.6025 143.376C64.2345 143.944 64.0505 144.752 64.0505 145.8C64.0505 146.84 64.2345 147.644 64.6025 148.212Z" fill="#979797"/>
</svg>
