<svg width="255" height="269" viewBox="0 0 255 269" fill="none" xmlns="http://www.w3.org/2000/svg">
<path d="M60.1145 15.1366L60.2639 15.3069H60.4904H254.5V229.5H0.5V15.3069H34.5096H34.7361L34.8855 15.1366L47.5 0.758158L60.1145 15.1366Z" fill="#F9F9F9" stroke="#D6D6D6"/>
<rect x="30" y="40" width="20" height="20" fill="#D6D6D6"/>
<path d="M68.752 55L65.14 45.2H66.204L69.256 53.698L72.308 45.2H73.372L69.76 55H68.752ZM76.8976 47.832C77.9336 47.832 78.7689 48.2007 79.4036 48.938C80.0476 49.666 80.3696 50.5293 80.3696 51.528C80.3696 51.6307 80.3603 51.7753 80.3416 51.962H74.1956C74.2889 52.6713 74.5876 53.236 75.0916 53.656C75.6049 54.0667 76.2349 54.272 76.9816 54.272C77.5136 54.272 77.9709 54.1647 78.3536 53.95C78.7456 53.726 79.0396 53.4367 79.2356 53.082L80.0476 53.558C79.7396 54.0527 79.3196 54.4447 78.7876 54.734C78.2556 55.0233 77.6489 55.168 76.9676 55.168C75.8663 55.168 74.9703 54.8227 74.2796 54.132C73.5889 53.4413 73.2436 52.564 73.2436 51.5C73.2436 50.4547 73.5843 49.582 74.2656 48.882C74.9469 48.182 75.8243 47.832 76.8976 47.832ZM76.8976 48.728C76.1696 48.728 75.5583 48.9473 75.0636 49.386C74.5783 49.8153 74.2889 50.3753 74.1956 51.066H79.4176C79.3243 50.3287 79.0396 49.7547 78.5636 49.344C78.0876 48.9333 77.5323 48.728 76.8976 48.728ZM82.7634 49.162C83.1927 48.3127 83.93 47.888 84.9754 47.888V48.784C84.3407 48.784 83.8134 48.9707 83.3934 49.344C82.9734 49.7173 82.7634 50.3053 82.7634 51.108V55H81.8394V48H82.7634V49.162ZM86.6963 49.834C86.6963 50.1513 86.8363 50.4033 87.1163 50.59C87.3963 50.7767 87.7369 50.9213 88.1383 51.024C88.5396 51.1267 88.9409 51.2433 89.3423 51.374C89.7436 51.4953 90.0843 51.7053 90.3643 52.004C90.6443 52.2933 90.7843 52.676 90.7843 53.152C90.7843 53.7493 90.5463 54.2347 90.0703 54.608C89.6036 54.9813 88.9969 55.168 88.2503 55.168C87.5783 55.168 87.0043 55.0187 86.5283 54.72C86.0616 54.4213 85.7349 54.034 85.5483 53.558L86.3323 53.096C86.4629 53.46 86.6963 53.7493 87.0323 53.964C87.3776 54.1693 87.7836 54.272 88.2503 54.272C88.7076 54.272 89.0903 54.1833 89.3983 54.006C89.7063 53.8193 89.8603 53.5347 89.8603 53.152C89.8603 52.8347 89.7203 52.5827 89.4403 52.396C89.1603 52.2093 88.8196 52.0647 88.4183 51.962C88.0169 51.8593 87.6156 51.7473 87.2143 51.626C86.8129 51.4953 86.4723 51.2853 86.1923 50.996C85.9123 50.6973 85.7723 50.31 85.7723 49.834C85.7723 49.2647 85.9963 48.7887 86.4443 48.406C86.9016 48.0233 87.4756 47.832 88.1663 47.832C88.7356 47.832 89.2349 47.9627 89.6643 48.224C90.0936 48.476 90.4109 48.8213 90.6163 49.26L89.8463 49.708C89.5756 49.0547 89.0156 48.728 88.1663 48.728C87.7649 48.728 87.4196 48.826 87.1303 49.022C86.8409 49.2087 86.6963 49.4793 86.6963 49.834ZM98.1406 48H99.0646V55H98.1406V53.628C97.4966 54.6547 96.554 55.168 95.3126 55.168C94.314 55.168 93.46 54.8133 92.7506 54.104C92.0506 53.3947 91.7006 52.5267 91.7006 51.5C91.7006 50.4733 92.0506 49.6053 92.7506 48.896C93.46 48.1867 94.314 47.832 95.3126 47.832C96.554 47.832 97.4966 48.3453 98.1406 49.372V48ZM93.4226 53.474C93.9546 54.006 94.608 54.272 95.3826 54.272C96.1573 54.272 96.8106 54.006 97.3426 53.474C97.8746 52.9327 98.1406 52.2747 98.1406 51.5C98.1406 50.7253 97.8746 50.072 97.3426 49.54C96.8106 48.9987 96.1573 48.728 95.3826 48.728C94.608 48.728 93.9546 48.9987 93.4226 49.54C92.8906 50.072 92.6246 50.7253 92.6246 51.5C92.6246 52.2747 92.8906 52.9327 93.4226 53.474ZM104.283 55.168C103.228 55.168 102.351 54.818 101.651 54.118C100.951 53.4087 100.601 52.536 100.601 51.5C100.601 50.464 100.951 49.596 101.651 48.896C102.351 48.1867 103.228 47.832 104.283 47.832C104.974 47.832 105.594 48 106.145 48.336C106.696 48.6627 107.097 49.106 107.349 49.666L106.593 50.1C106.406 49.68 106.103 49.3487 105.683 49.106C105.272 48.854 104.806 48.728 104.283 48.728C103.508 48.728 102.855 48.9987 102.323 49.54C101.791 50.072 101.525 50.7253 101.525 51.5C101.525 52.2747 101.791 52.9327 102.323 53.474C102.855 54.006 103.508 54.272 104.283 54.272C104.806 54.272 105.272 54.1507 105.683 53.908C106.094 53.656 106.416 53.32 106.649 52.9L107.419 53.348C107.13 53.908 106.705 54.3513 106.145 54.678C105.585 55.0047 104.964 55.168 104.283 55.168ZM111.939 55.168C110.885 55.168 110.007 54.818 109.307 54.118C108.607 53.4087 108.257 52.536 108.257 51.5C108.257 50.464 108.607 49.596 109.307 48.896C110.007 48.1867 110.885 47.832 111.939 47.832C112.63 47.832 113.251 48 113.801 48.336C114.352 48.6627 114.753 49.106 115.005 49.666L114.249 50.1C114.063 49.68 113.759 49.3487 113.339 49.106C112.929 48.854 112.462 48.728 111.939 48.728C111.165 48.728 110.511 48.9987 109.979 49.54C109.447 50.072 109.181 50.7253 109.181 51.5C109.181 52.2747 109.447 52.9327 109.979 53.474C110.511 54.006 111.165 54.272 111.939 54.272C112.462 54.272 112.929 54.1507 113.339 53.908C113.75 53.656 114.072 53.32 114.305 52.9L115.075 53.348C114.786 53.908 114.361 54.3513 113.801 54.678C113.241 55.0047 112.621 55.168 111.939 55.168ZM117.34 46.32C117.209 46.4507 117.051 46.516 116.864 46.516C116.677 46.516 116.519 46.4507 116.388 46.32C116.257 46.1893 116.192 46.0307 116.192 45.844C116.192 45.6573 116.257 45.4987 116.388 45.368C116.519 45.2373 116.677 45.172 116.864 45.172C117.051 45.172 117.209 45.2373 117.34 45.368C117.471 45.4987 117.536 45.6573 117.536 45.844C117.536 46.0307 117.471 46.1893 117.34 46.32ZM116.402 55V48H117.326V55H116.402Z" fill="#333333"/>
<rect x="30" y="76" width="20" height="20" fill="#333333"/>
<path d="M72.28 81.2V82.124H69.27V91H68.29V82.124H65.28V81.2H72.28ZM73.4802 85.162C73.9095 84.3127 74.6468 83.888 75.6922 83.888V84.784C75.0575 84.784 74.5302 84.9707 74.1102 85.344C73.6902 85.7173 73.4802 86.3053 73.4802 87.108V91H72.5562V84H73.4802V85.162ZM79.7687 83.832C80.8047 83.832 81.64 84.2007 82.2747 84.938C82.9187 85.666 83.2407 86.5293 83.2407 87.528C83.2407 87.6307 83.2314 87.7753 83.2127 87.962H77.0667C77.16 88.6713 77.4587 89.236 77.9627 89.656C78.476 90.0667 79.106 90.272 79.8527 90.272C80.3847 90.272 80.842 90.1647 81.2247 89.95C81.6167 89.726 81.9107 89.4367 82.1067 89.082L82.9187 89.558C82.6107 90.0527 82.1907 90.4447 81.6587 90.734C81.1267 91.0233 80.52 91.168 79.8387 91.168C78.7374 91.168 77.8414 90.8227 77.1507 90.132C76.46 89.4413 76.1147 88.564 76.1147 87.5C76.1147 86.4547 76.4554 85.582 77.1367 84.882C77.818 84.182 78.6954 83.832 79.7687 83.832ZM79.7687 84.728C79.0407 84.728 78.4294 84.9473 77.9347 85.386C77.4494 85.8153 77.16 86.3753 77.0667 87.066H82.2887C82.1954 86.3287 81.9107 85.7547 81.4347 85.344C80.9587 84.9333 80.4034 84.728 79.7687 84.728ZM88.4625 83.832C89.4611 83.832 90.3105 84.1867 91.0105 84.896C91.7198 85.6053 92.0745 86.4733 92.0745 87.5C92.0745 88.5267 91.7198 89.3947 91.0105 90.104C90.3105 90.8133 89.4611 91.168 88.4625 91.168C87.2211 91.168 86.2785 90.6547 85.6345 89.628V91H84.7105V81.2H85.6345V85.372C86.2785 84.3453 87.2211 83.832 88.4625 83.832ZM86.4325 89.474C86.9645 90.006 87.6178 90.272 88.3925 90.272C89.1671 90.272 89.8205 90.006 90.3525 89.474C90.8845 88.9327 91.1505 88.2747 91.1505 87.5C91.1505 86.7253 90.8845 86.072 90.3525 85.54C89.8205 84.9987 89.1671 84.728 88.3925 84.728C87.6178 84.728 86.9645 84.9987 86.4325 85.54C85.9005 86.072 85.6345 86.7253 85.6345 87.5C85.6345 88.2747 85.9005 88.9327 86.4325 89.474ZM97.3629 83.832C98.3615 83.832 99.2109 84.1867 99.9109 84.896C100.62 85.6053 100.975 86.4733 100.975 87.5C100.975 88.5267 100.62 89.3947 99.9109 90.104C99.2109 90.8133 98.3615 91.168 97.3629 91.168C96.1215 91.168 95.1789 90.6547 94.5349 89.628V91H93.6109V81.2H94.5349V85.372C95.1789 84.3453 96.1215 83.832 97.3629 83.832ZM95.3329 89.474C95.8649 90.006 96.5182 90.272 97.2929 90.272C98.0675 90.272 98.7209 90.006 99.2529 89.474C99.7849 88.9327 100.051 88.2747 100.051 87.5C100.051 86.7253 99.7849 86.072 99.2529 85.54C98.7209 84.9987 98.0675 84.728 97.2929 84.728C96.5182 84.728 95.8649 84.9987 95.3329 85.54C94.8009 86.072 94.5349 86.7253 94.5349 87.5C94.5349 88.2747 94.8009 88.9327 95.3329 89.474ZM108.377 90.118C107.668 90.818 106.8 91.168 105.773 91.168C104.747 91.168 103.874 90.818 103.155 90.118C102.446 89.4087 102.091 88.536 102.091 87.5C102.091 86.464 102.446 85.596 103.155 84.896C103.874 84.1867 104.747 83.832 105.773 83.832C106.8 83.832 107.668 84.1867 108.377 84.896C109.096 85.596 109.455 86.464 109.455 87.5C109.455 88.536 109.096 89.4087 108.377 90.118ZM103.813 89.474C104.345 90.006 104.999 90.272 105.773 90.272C106.548 90.272 107.201 90.006 107.733 89.474C108.265 88.9327 108.531 88.2747 108.531 87.5C108.531 86.7253 108.265 86.072 107.733 85.54C107.201 84.9987 106.548 84.728 105.773 84.728C104.999 84.728 104.345 84.9987 103.813 85.54C103.281 86.072 103.015 86.7253 103.015 87.5C103.015 88.2747 103.281 88.9327 103.813 89.474Z" fill="#333333"/>
<path d="M38.3334 88.9883L35.5892 86.2442L34.4109 87.4225L38.3334 91.345L46.4226 83.2558L45.2442 82.0775L38.3334 88.9883Z" fill="white"/>
<rect x="30" y="112" width="20" height="20" fill="#D6D6D6"/>
<path d="M68.542 127.168C67.8607 127.168 67.2493 127.028 66.708 126.748C66.176 126.459 65.7933 126.039 65.56 125.488L66.386 124.998C66.694 125.81 67.4127 126.216 68.542 126.216C69.2233 126.216 69.7647 126.053 70.166 125.726C70.5767 125.399 70.782 124.9 70.782 124.228V117.2H71.762V124.228C71.762 125.18 71.454 125.908 70.838 126.412C70.2313 126.916 69.466 127.168 68.542 127.168ZM76.8839 119.832C77.9199 119.832 78.7553 120.201 79.3899 120.938C80.0339 121.666 80.3559 122.529 80.3559 123.528C80.3559 123.631 80.3466 123.775 80.3279 123.962H74.1819C74.2753 124.671 74.5739 125.236 75.0779 125.656C75.5913 126.067 76.2213 126.272 76.9679 126.272C77.4999 126.272 77.9573 126.165 78.3399 125.95C78.7319 125.726 79.0259 125.437 79.2219 125.082L80.0339 125.558C79.7259 126.053 79.3059 126.445 78.7739 126.734C78.2419 127.023 77.6353 127.168 76.9539 127.168C75.8526 127.168 74.9566 126.823 74.2659 126.132C73.5753 125.441 73.2299 124.564 73.2299 123.5C73.2299 122.455 73.5706 121.582 74.2519 120.882C74.9333 120.182 75.8106 119.832 76.8839 119.832ZM76.8839 120.728C76.1559 120.728 75.5446 120.947 75.0499 121.386C74.5646 121.815 74.2753 122.375 74.1819 123.066H79.4039C79.3106 122.329 79.0259 121.755 78.5499 121.344C78.0739 120.933 77.5186 120.728 76.8839 120.728ZM89.9803 120H90.9323L88.7763 127H87.7683L85.9623 121.358L84.1563 127H83.1483L80.9923 120H81.9443L83.6663 125.81L85.5003 120H86.4243L88.2583 125.81L89.9803 120ZM95.2863 119.832C96.3223 119.832 97.1576 120.201 97.7923 120.938C98.4363 121.666 98.7583 122.529 98.7583 123.528C98.7583 123.631 98.7489 123.775 98.7303 123.962H92.5843C92.6776 124.671 92.9763 125.236 93.4803 125.656C93.9936 126.067 94.6236 126.272 95.3703 126.272C95.9023 126.272 96.3596 126.165 96.7423 125.95C97.1343 125.726 97.4283 125.437 97.6243 125.082L98.4363 125.558C98.1283 126.053 97.7083 126.445 97.1763 126.734C96.6443 127.023 96.0376 127.168 95.3563 127.168C94.2549 127.168 93.3589 126.823 92.6683 126.132C91.9776 125.441 91.6323 124.564 91.6323 123.5C91.6323 122.455 91.9729 121.582 92.6543 120.882C93.3356 120.182 94.2129 119.832 95.2863 119.832ZM95.2863 120.728C94.5583 120.728 93.9469 120.947 93.4523 121.386C92.9669 121.815 92.6776 122.375 92.5843 123.066H97.8063C97.7129 122.329 97.4283 121.755 96.9523 121.344C96.4763 120.933 95.9209 120.728 95.2863 120.728ZM100.228 127V116.78H101.152V127H100.228ZM104.037 121.162C104.466 120.313 105.203 119.888 106.249 119.888V120.784C105.614 120.784 105.087 120.971 104.667 121.344C104.247 121.717 104.037 122.305 104.037 123.108V127H103.113V120H104.037V121.162ZM112.692 120H113.672L110.676 127.644C110.405 128.335 110.018 128.876 109.514 129.268C109.019 129.669 108.464 129.847 107.848 129.8V128.932C108.688 129.025 109.327 128.54 109.766 127.476L109.948 127.042L106.812 120H107.792L110.424 125.866L112.692 120ZM121.789 117.928C121.107 117.872 120.599 117.989 120.263 118.278C119.936 118.567 119.773 119.048 119.773 119.72V120H121.789V120.896H119.773V127H118.849V120.896H117.659V120H118.849V119.72C118.849 118.805 119.101 118.115 119.605 117.648C120.118 117.172 120.846 116.967 121.789 117.032V117.928ZM128.215 126.118C127.506 126.818 126.638 127.168 125.611 127.168C124.584 127.168 123.712 126.818 122.993 126.118C122.284 125.409 121.929 124.536 121.929 123.5C121.929 122.464 122.284 121.596 122.993 120.896C123.712 120.187 124.584 119.832 125.611 119.832C126.638 119.832 127.506 120.187 128.215 120.896C128.934 121.596 129.293 122.464 129.293 123.5C129.293 124.536 128.934 125.409 128.215 126.118ZM123.651 125.474C124.183 126.006 124.836 126.272 125.611 126.272C126.386 126.272 127.039 126.006 127.571 125.474C128.103 124.933 128.369 124.275 128.369 123.5C128.369 122.725 128.103 122.072 127.571 121.54C127.039 120.999 126.386 120.728 125.611 120.728C124.836 120.728 124.183 120.999 123.651 121.54C123.119 122.072 122.853 122.725 122.853 123.5C122.853 124.275 123.119 124.933 123.651 125.474ZM131.763 121.162C132.193 120.313 132.93 119.888 133.975 119.888V120.784C133.341 120.784 132.813 120.971 132.393 121.344C131.973 121.717 131.763 122.305 131.763 123.108V127H130.839V120H131.763V121.162ZM143.782 120H144.762L141.766 127.644C141.495 128.335 141.108 128.876 140.604 129.268C140.109 129.669 139.554 129.847 138.938 129.8V128.932C139.778 129.025 140.417 128.54 140.856 127.476L141.038 127.042L137.902 120H138.882L141.514 125.866L143.782 120ZM151.471 126.118C150.762 126.818 149.894 127.168 148.867 127.168C147.84 127.168 146.968 126.818 146.249 126.118C145.54 125.409 145.185 124.536 145.185 123.5C145.185 122.464 145.54 121.596 146.249 120.896C146.968 120.187 147.84 119.832 148.867 119.832C149.894 119.832 150.762 120.187 151.471 120.896C152.19 121.596 152.549 122.464 152.549 123.5C152.549 124.536 152.19 125.409 151.471 126.118ZM146.907 125.474C147.439 126.006 148.092 126.272 148.867 126.272C149.642 126.272 150.295 126.006 150.827 125.474C151.359 124.933 151.625 124.275 151.625 123.5C151.625 122.725 151.359 122.072 150.827 121.54C150.295 120.999 149.642 120.728 148.867 120.728C148.092 120.728 147.439 120.999 146.907 121.54C146.375 122.072 146.109 122.725 146.109 123.5C146.109 124.275 146.375 124.933 146.907 125.474ZM159.023 120H159.947V127H159.023V125.908C158.501 126.748 157.717 127.168 156.671 127.168C155.822 127.168 155.15 126.911 154.655 126.398C154.17 125.875 153.927 125.175 153.927 124.298V120H154.851V124.298C154.851 124.923 155.015 125.409 155.341 125.754C155.677 126.099 156.149 126.272 156.755 126.272C157.427 126.272 157.973 126.062 158.393 125.642C158.813 125.213 159.023 124.555 159.023 123.668V120ZM168.902 117.928C168.221 117.872 167.712 117.989 167.376 118.278C167.049 118.567 166.886 119.048 166.886 119.72V120H168.902V120.896H166.886V127H165.962V120.896H164.772V120H165.962V119.72C165.962 118.805 166.214 118.115 166.718 117.648C167.231 117.172 167.959 116.967 168.902 117.032V117.928ZM175.482 120H176.406V127H175.482V125.628C174.838 126.655 173.896 127.168 172.654 127.168C171.656 127.168 170.802 126.813 170.092 126.104C169.392 125.395 169.042 124.527 169.042 123.5C169.042 122.473 169.392 121.605 170.092 120.896C170.802 120.187 171.656 119.832 172.654 119.832C173.896 119.832 174.838 120.345 175.482 121.372V120ZM170.764 125.474C171.296 126.006 171.95 126.272 172.724 126.272C173.499 126.272 174.152 126.006 174.684 125.474C175.216 124.933 175.482 124.275 175.482 123.5C175.482 122.725 175.216 122.072 174.684 121.54C174.152 120.999 173.499 120.728 172.724 120.728C171.95 120.728 171.296 120.999 170.764 121.54C170.232 122.072 169.966 122.725 169.966 123.5C169.966 124.275 170.232 124.933 170.764 125.474ZM185.825 119.832C186.609 119.832 187.239 120.084 187.715 120.588C188.2 121.092 188.443 121.773 188.443 122.632V127H187.519V122.632C187.519 122.025 187.36 121.559 187.043 121.232C186.735 120.896 186.324 120.728 185.811 120.728C185.232 120.728 184.761 120.924 184.397 121.316C184.042 121.699 183.865 122.301 183.865 123.122V127H182.941V122.632C182.941 122.016 182.791 121.545 182.493 121.218C182.203 120.891 181.807 120.728 181.303 120.728C180.743 120.728 180.267 120.924 179.875 121.316C179.483 121.708 179.287 122.31 179.287 123.122V127H178.363V120H179.287V121.022C179.791 120.229 180.505 119.832 181.429 119.832C182.437 119.832 183.146 120.257 183.557 121.106C184.061 120.257 184.817 119.832 185.825 119.832ZM191.168 118.32C191.037 118.451 190.879 118.516 190.692 118.516C190.505 118.516 190.347 118.451 190.216 118.32C190.085 118.189 190.02 118.031 190.02 117.844C190.02 117.657 190.085 117.499 190.216 117.368C190.347 117.237 190.505 117.172 190.692 117.172C190.879 117.172 191.037 117.237 191.168 117.368C191.299 117.499 191.364 117.657 191.364 117.844C191.364 118.031 191.299 118.189 191.168 118.32ZM190.23 127V120H191.154V127H190.23ZM193.115 127V116.78H194.039V127H193.115ZM201.04 120H202.02L199.024 127.644C198.753 128.335 198.366 128.876 197.862 129.268C197.367 129.669 196.812 129.847 196.196 129.8V128.932C197.036 129.025 197.675 128.54 198.114 127.476L198.296 127.042L195.16 120H196.14L198.772 125.866L201.04 120Z" fill="#333333"/>
<rect x="30" y="148" width="20" height="20" fill="#D6D6D6"/>
<path d="M68.752 163L65.14 153.2H66.204L69.256 161.698L72.308 153.2H73.372L69.76 163H68.752ZM74.6376 153.2H75.6176V163H74.6376V153.2ZM81.3641 153.2C82.2415 153.2 82.9741 153.494 83.5621 154.082C84.1501 154.67 84.4441 155.403 84.4441 156.28C84.4441 157.157 84.1501 157.89 83.5621 158.478C82.9741 159.066 82.2415 159.36 81.3641 159.36H78.8441V163H77.8641V153.2H81.3641ZM81.3641 158.436C81.9708 158.436 82.4701 158.235 82.8621 157.834C83.2635 157.423 83.4641 156.905 83.4641 156.28C83.4641 155.655 83.2635 155.141 82.8621 154.74C82.4701 154.329 81.9708 154.124 81.3641 154.124H78.8441V158.436H81.3641ZM95.502 156H96.426V162.72C96.426 163.728 96.0806 164.521 95.39 165.1C94.6993 165.679 93.8733 165.968 92.912 165.968C91.2693 165.968 90.1633 165.399 89.594 164.26L90.406 163.798C90.826 164.647 91.6613 165.072 92.912 165.072C93.7146 165.072 94.3446 164.857 94.802 164.428C95.2686 164.008 95.502 163.439 95.502 162.72V161.628C94.858 162.655 93.9153 163.168 92.674 163.168C91.6753 163.168 90.8213 162.813 90.112 162.104C89.412 161.395 89.062 160.527 89.062 159.5C89.062 158.473 89.412 157.605 90.112 156.896C90.8213 156.187 91.6753 155.832 92.674 155.832C93.9153 155.832 94.858 156.345 95.502 157.372V156ZM90.784 161.474C91.316 162.006 91.9693 162.272 92.744 162.272C93.5186 162.272 94.172 162.006 94.704 161.474C95.236 160.933 95.502 160.275 95.502 159.5C95.502 158.725 95.236 158.072 94.704 157.54C94.172 156.999 93.5186 156.728 92.744 156.728C91.9693 156.728 91.316 156.999 90.784 157.54C90.252 158.072 89.986 158.725 89.986 159.5C89.986 160.275 90.252 160.933 90.784 161.474ZM101.658 155.832C102.508 155.832 103.175 156.093 103.66 156.616C104.155 157.129 104.402 157.825 104.402 158.702V163H103.478V158.702C103.478 158.077 103.31 157.591 102.974 157.246C102.648 156.901 102.181 156.728 101.574 156.728C100.902 156.728 100.356 156.943 99.9363 157.372C99.5163 157.792 99.3063 158.445 99.3063 159.332V163H98.3823V153.2H99.3063V157.092C99.829 156.252 100.613 155.832 101.658 155.832ZM112.055 162.118C111.346 162.818 110.478 163.168 109.451 163.168C108.424 163.168 107.552 162.818 106.833 162.118C106.124 161.409 105.769 160.536 105.769 159.5C105.769 158.464 106.124 157.596 106.833 156.896C107.552 156.187 108.424 155.832 109.451 155.832C110.478 155.832 111.346 156.187 112.055 156.896C112.774 157.596 113.133 158.464 113.133 159.5C113.133 160.536 112.774 161.409 112.055 162.118ZM107.491 161.474C108.023 162.006 108.676 162.272 109.451 162.272C110.226 162.272 110.879 162.006 111.411 161.474C111.943 160.933 112.209 160.275 112.209 159.5C112.209 158.725 111.943 158.072 111.411 157.54C110.879 156.999 110.226 156.728 109.451 156.728C108.676 156.728 108.023 156.999 107.491 157.54C106.959 158.072 106.693 158.725 106.693 159.5C106.693 160.275 106.959 160.933 107.491 161.474ZM115.603 157.162C116.033 156.313 116.77 155.888 117.815 155.888V156.784C117.181 156.784 116.653 156.971 116.233 157.344C115.813 157.717 115.603 158.305 115.603 159.108V163H114.679V156H115.603V157.162ZM121.892 155.832C122.928 155.832 123.763 156.201 124.398 156.938C125.042 157.666 125.364 158.529 125.364 159.528C125.364 159.631 125.354 159.775 125.336 159.962H119.19C119.283 160.671 119.582 161.236 120.086 161.656C120.599 162.067 121.229 162.272 121.976 162.272C122.508 162.272 122.965 162.165 123.348 161.95C123.74 161.726 124.034 161.437 124.23 161.082L125.042 161.558C124.734 162.053 124.314 162.445 123.782 162.734C123.25 163.023 122.643 163.168 121.962 163.168C120.86 163.168 119.964 162.823 119.274 162.132C118.583 161.441 118.238 160.564 118.238 159.5C118.238 158.455 118.578 157.582 119.26 156.882C119.941 156.182 120.818 155.832 121.892 155.832ZM121.892 156.728C121.164 156.728 120.552 156.947 120.058 157.386C119.572 157.815 119.283 158.375 119.19 159.066H124.412C124.318 158.329 124.034 157.755 123.558 157.344C123.082 156.933 122.526 156.728 121.892 156.728ZM130.338 156.896H128.322V161.138C128.322 161.521 128.397 161.796 128.546 161.964C128.696 162.123 128.92 162.207 129.218 162.216C129.517 162.216 129.89 162.207 130.338 162.188V163C129.358 163.149 128.621 163.079 128.126 162.79C127.641 162.501 127.398 161.95 127.398 161.138V156.896H125.928V156H127.398V154.32L128.322 154.04V156H130.338V156.896Z" fill="#333333"/>
<rect x="30" y="184" width="20" height="20" fill="#D6D6D6"/>
<path d="M69.9 189.2C71.2347 189.2 72.336 189.676 73.204 190.628C74.0813 191.571 74.52 192.728 74.52 194.1C74.52 195.472 74.0813 196.634 73.204 197.586C72.336 198.529 71.2347 199 69.9 199H66.12V189.2H69.9ZM69.9 198.076C70.9733 198.076 71.8507 197.693 72.532 196.928C73.2227 196.163 73.568 195.22 73.568 194.1C73.568 192.98 73.2227 192.037 72.532 191.272C71.8507 190.507 70.9733 190.124 69.9 190.124H67.1V198.076H69.9ZM81.9222 198.118C81.2128 198.818 80.3448 199.168 79.3182 199.168C78.2915 199.168 77.4188 198.818 76.7002 198.118C75.9908 197.409 75.6362 196.536 75.6362 195.5C75.6362 194.464 75.9908 193.596 76.7002 192.896C77.4188 192.187 78.2915 191.832 79.3182 191.832C80.3448 191.832 81.2128 192.187 81.9222 192.896C82.6408 193.596 83.0002 194.464 83.0002 195.5C83.0002 196.536 82.6408 197.409 81.9222 198.118ZM77.3582 197.474C77.8902 198.006 78.5435 198.272 79.3182 198.272C80.0928 198.272 80.7462 198.006 81.2782 197.474C81.8102 196.933 82.0762 196.275 82.0762 195.5C82.0762 194.725 81.8102 194.072 81.2782 193.54C80.7462 192.999 80.0928 192.728 79.3182 192.728C78.5435 192.728 77.8902 192.999 77.3582 193.54C76.8262 194.072 76.5602 194.725 76.5602 195.5C76.5602 196.275 76.8262 196.933 77.3582 197.474ZM84.5464 199V188.78H85.4704V199H84.5464ZM90.6932 199.168C89.6385 199.168 88.7612 198.818 88.0612 198.118C87.3612 197.409 87.0112 196.536 87.0112 195.5C87.0112 194.464 87.3612 193.596 88.0612 192.896C88.7612 192.187 89.6385 191.832 90.6932 191.832C91.3838 191.832 92.0045 192 92.5552 192.336C93.1058 192.663 93.5072 193.106 93.7592 193.666L93.0032 194.1C92.8165 193.68 92.5132 193.349 92.0932 193.106C91.6825 192.854 91.2158 192.728 90.6932 192.728C89.9185 192.728 89.2652 192.999 88.7332 193.54C88.2012 194.072 87.9352 194.725 87.9352 195.5C87.9352 196.275 88.2012 196.933 88.7332 197.474C89.2652 198.006 89.9185 198.272 90.6932 198.272C91.2158 198.272 91.6825 198.151 92.0932 197.908C92.5038 197.656 92.8258 197.32 93.0592 196.9L93.8292 197.348C93.5398 197.908 93.1152 198.351 92.5552 198.678C91.9952 199.005 91.3745 199.168 90.6932 199.168ZM98.3214 191.832C99.3574 191.832 100.193 192.201 100.827 192.938C101.471 193.666 101.793 194.529 101.793 195.528C101.793 195.631 101.784 195.775 101.765 195.962H95.6194C95.7128 196.671 96.0114 197.236 96.5154 197.656C97.0288 198.067 97.6588 198.272 98.4054 198.272C98.9374 198.272 99.3948 198.165 99.7774 197.95C100.169 197.726 100.463 197.437 100.659 197.082L101.471 197.558C101.163 198.053 100.743 198.445 100.211 198.734C99.6794 199.023 99.0728 199.168 98.3914 199.168C97.2901 199.168 96.3941 198.823 95.7034 198.132C95.0128 197.441 94.6674 196.564 94.6674 195.5C94.6674 194.455 95.0081 193.582 95.6894 192.882C96.3708 192.182 97.2481 191.832 98.3214 191.832ZM98.3214 192.728C97.5934 192.728 96.9821 192.947 96.4874 193.386C96.0021 193.815 95.7128 194.375 95.6194 195.066H100.841C100.748 194.329 100.463 193.755 99.9874 193.344C99.5114 192.933 98.9561 192.728 98.3214 192.728ZM114.631 198.678L113.763 199.168L112.727 198.062C111.99 198.799 111.029 199.168 109.843 199.168C108.882 199.168 108.103 198.921 107.505 198.426C106.917 197.922 106.623 197.245 106.623 196.396C106.623 195.78 106.782 195.225 107.099 194.73C107.417 194.235 107.888 193.843 108.513 193.554C108.028 193.003 107.785 192.387 107.785 191.706C107.785 190.894 108.065 190.245 108.625 189.76C109.185 189.275 109.839 189.032 110.585 189.032C111.211 189.032 111.78 189.209 112.293 189.564C112.816 189.909 113.189 190.381 113.413 190.978L112.587 191.454C112.447 190.997 112.195 190.637 111.831 190.376C111.477 190.115 111.066 189.984 110.599 189.984C110.095 189.984 109.661 190.138 109.297 190.446C108.943 190.754 108.765 191.155 108.765 191.65C108.765 191.977 108.84 192.271 108.989 192.532C109.148 192.793 109.377 193.083 109.675 193.4L112.629 196.55C112.9 196.018 113.077 195.397 113.161 194.688L114.029 195.192C113.908 196.004 113.67 196.699 113.315 197.278L114.631 198.678ZM109.815 198.216C110.749 198.216 111.495 197.927 112.055 197.348L109.171 194.282C108.621 194.487 108.219 194.781 107.967 195.164C107.725 195.537 107.603 195.939 107.603 196.368C107.603 196.937 107.799 197.39 108.191 197.726C108.593 198.053 109.134 198.216 109.815 198.216ZM128.97 194.338V194.842C128.97 196.055 128.536 197.082 127.668 197.922C126.8 198.753 125.638 199.168 124.182 199.168C122.698 199.168 121.471 198.678 120.5 197.698C119.53 196.718 119.044 195.519 119.044 194.1C119.044 192.681 119.53 191.482 120.5 190.502C121.471 189.522 122.698 189.032 124.182 189.032C125.088 189.032 125.918 189.251 126.674 189.69C127.43 190.129 128.014 190.712 128.424 191.44L127.556 191.944C127.248 191.347 126.791 190.871 126.184 190.516C125.578 190.161 124.91 189.984 124.182 189.984C122.96 189.984 121.961 190.381 121.186 191.174C120.412 191.967 120.024 192.943 120.024 194.1C120.024 195.257 120.412 196.233 121.186 197.026C121.961 197.819 122.96 198.216 124.182 198.216C125.284 198.216 126.166 197.941 126.828 197.39C127.491 196.83 127.869 196.121 127.962 195.262H124.07V194.338H128.97ZM136.531 192H137.455V199H136.531V197.628C135.887 198.655 134.945 199.168 133.703 199.168C132.705 199.168 131.851 198.813 131.141 198.104C130.441 197.395 130.091 196.527 130.091 195.5C130.091 194.473 130.441 193.605 131.141 192.896C131.851 192.187 132.705 191.832 133.703 191.832C134.945 191.832 135.887 192.345 136.531 193.372V192ZM131.813 197.474C132.345 198.006 132.999 198.272 133.773 198.272C134.548 198.272 135.201 198.006 135.733 197.474C136.265 196.933 136.531 196.275 136.531 195.5C136.531 194.725 136.265 194.072 135.733 193.54C135.201 192.999 134.548 192.728 133.773 192.728C132.999 192.728 132.345 192.999 131.813 193.54C131.281 194.072 131.015 194.725 131.015 195.5C131.015 196.275 131.281 196.933 131.813 197.474ZM143.164 191.832C144.162 191.832 145.012 192.187 145.712 192.896C146.421 193.605 146.776 194.473 146.776 195.5C146.776 196.527 146.421 197.395 145.712 198.104C145.012 198.813 144.162 199.168 143.164 199.168C141.922 199.168 140.98 198.655 140.336 197.628V199H139.412V189.2H140.336V193.372C140.98 192.345 141.922 191.832 143.164 191.832ZM141.134 197.474C141.666 198.006 142.319 198.272 143.094 198.272C143.868 198.272 144.522 198.006 145.054 197.474C145.586 196.933 145.852 196.275 145.852 195.5C145.852 194.725 145.586 194.072 145.054 193.54C144.522 192.999 143.868 192.728 143.094 192.728C142.319 192.728 141.666 192.999 141.134 193.54C140.602 194.072 140.336 194.725 140.336 195.5C140.336 196.275 140.602 196.933 141.134 197.474ZM154.332 192H155.256V199H154.332V197.628C153.688 198.655 152.745 199.168 151.504 199.168C150.505 199.168 149.651 198.813 148.942 198.104C148.242 197.395 147.892 196.527 147.892 195.5C147.892 194.473 148.242 193.605 148.942 192.896C149.651 192.187 150.505 191.832 151.504 191.832C152.745 191.832 153.688 192.345 154.332 193.372V192ZM149.614 197.474C150.146 198.006 150.799 198.272 151.574 198.272C152.349 198.272 153.002 198.006 153.534 197.474C154.066 196.933 154.332 196.275 154.332 195.5C154.332 194.725 154.066 194.072 153.534 193.54C153.002 192.999 152.349 192.728 151.574 192.728C150.799 192.728 150.146 192.999 149.614 193.54C149.082 194.072 148.816 194.725 148.816 195.5C148.816 196.275 149.082 196.933 149.614 197.474ZM160.488 191.832C161.338 191.832 162.005 192.093 162.49 192.616C162.985 193.129 163.232 193.825 163.232 194.702V199H162.308V194.702C162.308 194.077 162.14 193.591 161.804 193.246C161.478 192.901 161.011 192.728 160.404 192.728C159.732 192.728 159.186 192.943 158.766 193.372C158.346 193.792 158.136 194.445 158.136 195.332V199H157.212V192H158.136V193.092C158.659 192.252 159.443 191.832 160.488 191.832ZM168.295 191.832C169.144 191.832 169.812 192.093 170.297 192.616C170.792 193.129 171.039 193.825 171.039 194.702V199H170.115V194.702C170.115 194.077 169.947 193.591 169.611 193.246C169.284 192.901 168.818 192.728 168.211 192.728C167.539 192.728 166.993 192.943 166.573 193.372C166.153 193.792 165.943 194.445 165.943 195.332V199H165.019V192H165.943V193.092C166.466 192.252 167.25 191.832 168.295 191.832ZM178.846 192H179.77V199H178.846V197.628C178.202 198.655 177.259 199.168 176.018 199.168C175.019 199.168 174.165 198.813 173.456 198.104C172.756 197.395 172.406 196.527 172.406 195.5C172.406 194.473 172.756 193.605 173.456 192.896C174.165 192.187 175.019 191.832 176.018 191.832C177.259 191.832 178.202 192.345 178.846 193.372V192ZM174.128 197.474C174.66 198.006 175.313 198.272 176.088 198.272C176.862 198.272 177.516 198.006 178.048 197.474C178.58 196.933 178.846 196.275 178.846 195.5C178.846 194.725 178.58 194.072 178.048 193.54C177.516 192.999 176.862 192.728 176.088 192.728C175.313 192.728 174.66 192.999 174.128 193.54C173.596 194.072 173.33 194.725 173.33 195.5C173.33 196.275 173.596 196.933 174.128 197.474Z" fill="#333333"/>
<rect width="93" height="30" transform="translate(137 239)" fill="#333333"/>
<path d="M155.996 249.6V258H154.88V250.656H151.016V258H149.9V249.6H155.996ZM165.982 256.884C165.142 257.732 164.114 258.156 162.898 258.156C161.682 258.156 160.654 257.732 159.814 256.884C158.974 256.036 158.554 255.008 158.554 253.8C158.554 252.584 158.974 251.556 159.814 250.716C160.654 249.868 161.682 249.444 162.898 249.444C164.114 249.444 165.142 249.868 165.982 250.716C166.83 251.556 167.254 252.584 167.254 253.8C167.254 255.008 166.83 256.036 165.982 256.884ZM160.582 256.128C161.206 256.752 161.978 257.064 162.898 257.064C163.818 257.064 164.586 256.752 165.202 256.128C165.826 255.496 166.138 254.72 166.138 253.8C166.138 252.872 165.826 252.096 165.202 251.472C164.586 250.84 163.818 250.524 162.898 250.524C161.978 250.524 161.206 250.84 160.582 251.472C159.966 252.096 159.658 252.872 159.658 253.8C159.658 254.72 159.966 255.496 160.582 256.128ZM175.904 258H174.536L170.912 253.968V258H169.796V249.6H170.912V253.392L174.416 249.6H175.784L172.076 253.68L175.904 258ZM183.782 258L183.098 256.116H179.318L178.634 258H177.446L180.578 249.6H181.838L184.97 258H183.782ZM179.702 255.072H182.714L181.202 250.932L179.702 255.072ZM191.241 253.656C191.673 253.84 192.009 254.108 192.249 254.46C192.489 254.812 192.609 255.228 192.609 255.708C192.609 256.428 192.337 257.016 191.793 257.472C191.257 257.928 190.545 258.156 189.657 258.156C188.849 258.156 188.197 257.976 187.701 257.616C187.213 257.256 186.869 256.792 186.669 256.224L187.617 255.684C187.865 256.628 188.545 257.1 189.657 257.1C190.241 257.1 190.693 256.972 191.013 256.716C191.333 256.452 191.493 256.104 191.493 255.672C191.493 255.24 191.341 254.892 191.037 254.628C190.741 254.364 190.325 254.232 189.789 254.232H188.805V253.212H189.513C190.025 253.212 190.433 253.088 190.737 252.84C191.041 252.584 191.193 252.252 191.193 251.844C191.193 251.444 191.049 251.12 190.761 250.872C190.481 250.616 190.089 250.488 189.585 250.488C188.657 250.488 188.037 250.9 187.725 251.724L186.789 251.184C187.293 250.024 188.225 249.444 189.585 249.444C190.393 249.444 191.045 249.668 191.541 250.116C192.045 250.564 192.297 251.132 192.297 251.82C192.297 252.62 191.945 253.232 191.241 253.656ZM200.666 258L199.982 256.116H196.202L195.518 258H194.33L197.462 249.6H198.722L201.854 258H200.666ZM196.586 255.072H199.598L198.086 250.932L196.586 255.072ZM208.812 249.6V250.656H206.328V258H205.224V250.656H202.752V249.6H208.812ZM214.164 252.6C214.94 252.6 215.584 252.86 216.096 253.38C216.616 253.9 216.876 254.54 216.876 255.3C216.876 256.068 216.616 256.712 216.096 257.232C215.584 257.744 214.94 258 214.164 258H211.116V249.6H212.232V252.6H214.164ZM214.164 256.956C214.628 256.956 215.012 256.8 215.316 256.488C215.62 256.176 215.772 255.78 215.772 255.3C215.772 254.828 215.62 254.436 215.316 254.124C215.012 253.804 214.628 253.644 214.164 253.644H212.232V256.956H214.164Z" fill="white"/>
<path d="M37.884 256.884C37.044 257.732 36.016 258.156 34.8 258.156C33.584 258.156 32.556 257.732 31.716 256.884C30.876 256.036 30.456 255.008 30.456 253.8C30.456 252.584 30.876 251.556 31.716 250.716C32.556 249.868 33.584 249.444 34.8 249.444C36.016 249.444 37.044 249.868 37.884 250.716C38.732 251.556 39.156 252.584 39.156 253.8C39.156 255.008 38.732 256.036 37.884 256.884ZM32.484 256.128C33.108 256.752 33.88 257.064 34.8 257.064C35.72 257.064 36.488 256.752 37.104 256.128C37.728 255.496 38.04 254.72 38.04 253.8C38.04 252.872 37.728 252.096 37.104 251.472C36.488 250.84 35.72 250.524 34.8 250.524C33.88 250.524 33.108 250.84 32.484 251.472C31.868 252.096 31.56 252.872 31.56 253.8C31.56 254.72 31.868 255.496 32.484 256.128ZM46.1887 249.6H47.3048V258H46.1887V254.616C45.5328 254.928 44.8448 255.084 44.1248 255.084C43.3087 255.084 42.6487 254.856 42.1447 254.4C41.6407 253.936 41.3887 253.336 41.3887 252.6V249.6H42.5047V252.528C42.5047 252.984 42.6487 253.348 42.9367 253.62C43.2247 253.892 43.6247 254.028 44.1367 254.028C44.8567 254.028 45.5407 253.872 46.1887 253.56V249.6ZM55.5239 258V251.736L51.2039 258H50.3039V249.6H51.4199V255.876L55.7399 249.6H56.6399V258H55.5239ZM63.5847 258.156C62.3127 258.156 61.2607 257.736 60.4287 256.896C59.6047 256.056 59.1927 255.024 59.1927 253.8C59.1927 252.576 59.6047 251.544 60.4287 250.704C61.2607 249.864 62.3127 249.444 63.5847 249.444C64.3527 249.444 65.0567 249.628 65.6967 249.996C66.3447 250.364 66.8487 250.86 67.2087 251.484L66.2367 252.048C65.9967 251.584 65.6367 251.216 65.1567 250.944C64.6847 250.664 64.1607 250.524 63.5847 250.524C62.6167 250.524 61.8247 250.836 61.2087 251.46C60.6007 252.084 60.2967 252.864 60.2967 253.8C60.2967 254.728 60.6007 255.504 61.2087 256.128C61.8247 256.752 62.6167 257.064 63.5847 257.064C64.1607 257.064 64.6847 256.928 65.1567 256.656C65.6367 256.376 65.9967 256.008 66.2367 255.552L67.2087 256.104C66.8567 256.728 66.3567 257.228 65.7087 257.604C65.0607 257.972 64.3527 258.156 63.5847 258.156ZM74.9549 249.6V250.656H72.4709V258H71.3669V250.656H68.8949V249.6H74.9549ZM82.4794 258V251.736L78.1594 258H77.2594V249.6H78.3754V255.876L82.6954 249.6H83.5954V258H82.4794ZM91.9682 249.6V250.656H89.4842V258H88.3802V250.656H85.9082V249.6H91.9682ZM97.3207 252.6C98.0967 252.6 98.7407 252.86 99.2527 253.38C99.7727 253.9 100.033 254.54 100.033 255.3C100.033 256.068 99.7727 256.712 99.2527 257.232C98.7407 257.744 98.0967 258 97.3207 258H94.2727V249.6H95.3887V252.6H97.3207ZM97.3207 256.956C97.7847 256.956 98.1687 256.8 98.4727 256.488C98.7767 256.176 98.9287 255.78 98.9287 255.3C98.9287 254.828 98.7767 254.436 98.4727 254.124C98.1687 253.804 97.7847 253.644 97.3207 253.644H95.3887V256.956H97.3207Z" fill="#333333"/>
<line x1="30" y1="263.5" x2="100" y2="263.5" stroke="black" stroke-dasharray="3 3"/>
</svg>
